<svg width="90" height="91" viewBox="0 0 90 91" fill="none" xmlns="http://www.w3.org/2000/svg">
<path d="M90 56.4966L79.1704 34.8363L68.3408 56.4966H75.6351C71.0433 70.8312 57.6144 81.2505 41.7706 81.2505C22.1507 81.2505 6.18654 65.2869 6.18654 45.6664C6.18654 26.0465 22.1507 10.0824 41.7706 10.0824C56.8882 10.0824 69.8036 19.5751 74.9464 32.9029L78.5027 25.7892C71.4271 12.7595 57.6177 3.89417 41.7734 3.89417C18.7402 3.89361 0 22.6327 0 45.6664C0 68.6985 18.7402 87.4392 41.7728 87.4392C61.0586 87.4392 77.2978 74.2914 82.0834 56.4972H90V56.4966Z" fill="#ECD774"/>
<path d="M19.5962 54.0011H23.5081L24.6954 49.7219H29.4694L30.7571 54.0011H34.8132L29.6433 37.3284H24.6954L19.5962 54.0011ZM26.2273 43.3642C26.4995 42.3983 26.7469 41.1365 26.9949 40.1486H27.0435C27.2914 41.1365 27.5891 42.3773 27.8867 43.3642L28.926 46.9056H25.2399L26.2273 43.3642Z" fill="#ECD774"/>
<path d="M45.137 40.2729C46.9654 40.2729 48.1029 40.5948 49.0185 40.9875L49.8115 37.969C48.9948 37.5742 47.3364 37.1517 45.1855 37.1517C39.718 37.1517 35.6873 40.3165 35.6581 45.8597C35.6349 48.3083 36.4754 50.4829 38.0105 51.922C39.5446 53.4064 41.7452 54.1729 44.7902 54.1729C46.988 54.1729 49.1941 53.6289 50.3538 53.2335V44.4516H44.1463V47.3955H46.7224V50.8816C46.4231 51.0329 45.7295 51.1296 44.8642 51.1296C41.7695 51.1296 39.6197 49.0991 39.6197 45.6604C39.6197 42.0521 41.992 40.2729 45.137 40.2729Z" fill="#ECD774"/>
<path d="M63.6021 40.4225V37.3312H53.3109V54.0011H63.9495V50.9125H57.0964V46.9542H63.2332V43.8838H57.0964V40.4225H63.6021Z" fill="#ECD774"/>
</svg>
