<svg width="90" height="91" viewBox="0 0 90 91" fill="none" xmlns="http://www.w3.org/2000/svg">
<g clip-path="url(#clip0_617_506)">
<path d="M81.7147 13.3756H8.28527C3.65572 13.3756 0 17.1356 0 21.6609V69.6725C0 74.3019 3.75996 77.9576 8.28527 77.9576H81.7147C86.3443 77.9576 90 74.1977 90 69.6724V21.6609C90 17.0312 86.24 13.3756 81.7147 13.3756ZM84.7266 69.6724C84.7266 71.3346 83.3804 72.6842 81.7147 72.6842H8.28527C6.62309 72.6842 5.27344 71.3381 5.27344 69.6724V21.6609C5.27344 19.9987 6.61957 18.649 8.28527 18.649H81.7147C83.3769 18.649 84.7266 19.9952 84.7266 21.6609V69.6724Z" fill="#ECD774"/>
<path d="M35.2863 52.1183C36.8184 50.4028 37.752 48.1421 37.752 45.6666C37.752 40.3195 33.4018 35.9692 28.0547 35.9692C22.7076 35.9692 18.3575 40.3195 18.3575 45.6666C18.3575 48.1421 19.2911 50.4028 20.823 52.1181C16.8077 54.566 14.121 58.9871 14.121 64.0239C14.121 65.4801 15.3016 66.6606 16.7578 66.6606H39.3514C40.8076 66.6606 41.9882 65.4801 41.9882 64.0239C41.9882 58.9871 39.3015 54.5662 35.2863 52.1183ZM28.0547 41.2427C30.494 41.2427 32.4786 43.2272 32.4786 45.6666C32.4786 48.1059 30.494 50.0904 28.0547 50.0904C25.6154 50.0904 23.631 48.1059 23.631 45.6666C23.631 43.2272 25.6154 41.2427 28.0547 41.2427ZM19.8047 61.3874C20.9227 57.8974 24.1984 55.3639 28.0547 55.3639C31.911 55.3639 35.1865 57.8972 36.3046 61.3874H19.8047Z" fill="#ECD774"/>
<path d="M73.2422 38.7936H53.4727C52.0165 38.7936 50.8359 39.9741 50.8359 41.4303C50.8359 42.8865 52.0165 44.067 53.4727 44.067H73.2422C74.6984 44.067 75.879 42.8865 75.879 41.4303C75.879 39.9741 74.6984 38.7936 73.2422 38.7936Z" fill="#ECD774"/>
<path d="M73.2422 24.6724H16.7578C15.3016 24.6724 14.121 25.8529 14.121 27.3091C14.121 28.7652 15.3016 29.9458 16.7578 29.9458H73.2422C74.6984 29.9458 75.879 28.7652 75.879 27.3091C75.879 25.8529 74.6984 24.6724 73.2422 24.6724Z" fill="#ECD774"/>
<path d="M73.2422 50.0905H53.4727C52.0165 50.0905 50.8359 51.271 50.8359 52.7272C50.8359 54.1833 52.0165 55.3639 53.4727 55.3639H73.2422C74.6984 55.3639 75.879 54.1833 75.879 52.7272C75.879 51.271 74.6984 50.0905 73.2422 50.0905Z" fill="#ECD774"/>
<path d="M67.5937 61.3875H53.4727C52.0165 61.3875 50.8359 62.568 50.8359 64.0242C50.8359 65.4803 52.0165 66.6609 53.4727 66.6609H67.5937C69.0499 66.6609 70.2304 65.4803 70.2304 64.0242C70.2304 62.568 69.0499 61.3875 67.5937 61.3875Z" fill="#ECD774"/>
</g>
<defs>
<clipPath id="clip0_617_506">
<rect width="90" height="90" fill="white" transform="translate(0 0.666626)"/>
</clipPath>
</defs>
</svg>
