<svg width="69" height="92" viewBox="0 0 69 92" fill="none" xmlns="http://www.w3.org/2000/svg">
<path d="M53.0374 68.8561L14.8375 68.8506C13.7839 68.8506 12.9277 69.7048 12.9277 70.7604C12.9277 71.814 13.7819 72.6701 14.8375 72.6701L53.0374 72.6757C54.091 72.6757 54.9471 71.8215 54.9471 70.7659C54.9469 69.7121 54.093 68.8561 53.0374 68.8561Z" fill="#ECD774"/>
<path d="M45.3929 76.4951H22.4764C21.4208 76.4951 20.5667 77.3493 20.5667 78.4049C20.5667 79.4605 21.4208 80.3147 22.4764 80.3147H45.3929C46.4485 80.3147 47.3027 79.4605 47.3027 78.4049C47.3025 77.3491 46.4485 76.4951 45.3929 76.4951Z" fill="#ECD774"/>
<path d="M34.3747 22.917C22.7914 22.917 13.3679 32.3405 13.3679 43.9237C13.3679 55.507 22.7914 64.9305 34.3747 64.9305C45.9579 64.9305 55.3814 55.507 55.3814 43.9237C55.3814 32.3405 45.9579 22.917 34.3747 22.917ZM17.3803 45.8335H24.8652C25.0767 51.0356 26.151 56.209 28.0161 59.8595C22.2567 57.553 18.0986 52.2184 17.3803 45.8335ZM24.8654 42.0141H17.3805C18.0987 35.6292 22.2568 30.2949 28.0162 27.9882C26.1512 31.6387 25.0768 36.8121 24.8654 42.0141ZM34.3747 61.1113C32.1867 61.1113 29.1094 55.1947 28.722 45.8337H40.0274C39.6399 55.1947 36.5627 61.1113 34.3747 61.1113ZM28.722 42.0141C29.1094 32.6531 32.1867 26.7365 34.3747 26.7365C36.5627 26.7365 39.6399 32.6531 40.0274 42.0141H28.722ZM40.7333 59.8597C42.5983 56.209 43.6727 51.0357 43.8841 45.8337H51.3691C50.6508 52.2184 46.4927 57.553 40.7333 59.8597ZM43.8841 42.0141C43.6727 36.8121 42.5983 31.6387 40.7333 27.9882C46.4927 30.2949 50.6509 35.6294 51.3691 42.0141H43.8841Z" fill="#ECD774"/>
<path d="M61.1106 11.4586H57.2913V7.51235C57.2913 3.33975 53.7605 -0.0416849 49.6524 0.000388408C49.0655 0.00647561 48.5519 0.0877576 47.946 0.241012L7.2298 11.5C3.2101 11.7177 0 15.0248 0 19.0975V84.0277C0 88.2406 3.42584 91.6666 7.6389 91.6666H61.1108C65.3237 91.6666 68.7497 88.2408 68.7497 84.0277V19.0975C68.7495 14.8847 65.3237 11.4586 61.1106 11.4586ZM48.9269 3.93164C51.1556 3.36285 53.4717 5.16806 53.4717 7.51235V11.4586H21.7095L48.9269 3.93164ZM64.9302 84.0277C64.9302 86.1332 63.2163 87.8471 61.1108 87.8471H7.6389C5.53344 87.8471 3.81954 86.1332 3.81954 84.0277V19.0975C3.81954 16.9921 5.53344 15.2782 7.6389 15.2782H61.1108C63.2163 15.2782 64.9302 16.9921 64.9302 19.0975V84.0277Z" fill="#ECD774"/>
</svg>
