<svg width="91" height="91" viewBox="0 0 91 91" fill="none" xmlns="http://www.w3.org/2000/svg">
<g clip-path="url(#clip0_617_514)">
<path d="M45.5 50.832C46.9724 50.832 48.166 49.6384 48.166 48.166C48.166 46.6936 46.9724 45.5 45.5 45.5C44.0276 45.5 42.834 46.6936 42.834 48.166C42.834 49.6384 44.0276 50.832 45.5 50.832Z" fill="#ECD774"/>
<path d="M45.5 0C20.4469 0 0 20.4482 0 45.5C0 70.5536 20.4482 91 45.5 91C70.5534 91 91 70.5518 91 45.5C91 20.4469 70.5518 0 45.5 0ZM45.5 10.8418C62.7976 10.8418 77.1756 23.5797 79.748 40.168H70.5024C64.6404 40.168 59.0709 37.8157 55.2221 33.7143C49.9611 28.1074 41.0394 28.1057 35.7779 33.7141C31.9291 37.8157 26.3596 40.168 20.4974 40.168H11.252C13.8244 23.5797 28.2024 10.8418 45.5 10.8418ZM45.5 56.1641C41.0901 56.1641 37.502 52.5763 37.502 48.166C37.502 43.7557 41.0901 40.168 45.5 40.168C49.9103 40.168 53.498 43.7557 53.498 48.166C53.498 52.5763 49.9103 56.1641 45.5 56.1641ZM13.227 58.1364C16.2787 56.9392 18.4822 56.1641 21.5059 56.1641C31.2258 56.1641 38.785 64.8258 37.3208 74.5578H37.3146C37.0971 76.0474 36.6691 77.4908 36.0518 78.8492C25.6083 75.8864 17.1569 68.1386 13.227 58.1364ZM54.9503 78.8485C54.3162 77.4542 53.8974 76.0109 53.6854 74.5578H53.6792C51.9731 63.2174 62.4416 53.8603 73.2929 56.618C74.4368 56.9088 75.8682 57.3894 77.7728 58.1366C73.8433 68.1378 65.3927 75.8853 54.9503 78.8485Z" fill="#ECD774"/>
</g>
<defs>
<clipPath id="clip0_617_514">
<rect width="91" height="91" fill="white"/>
</clipPath>
</defs>
</svg>
